<svg width="155" height="132" viewBox="0 0 155 132" fill="none" xmlns="http://www.w3.org/2000/svg">
<ellipse cx="4.92047" cy="4.76921" rx="4.92047" ry="4.76921" fill="#FC5B00"/>
<ellipse cx="24.6024" cy="4.76921" rx="4.92047" ry="4.76921" fill="#ECAA00"/>
<ellipse cx="44.2843" cy="4.76921" rx="4.92047" ry="4.76921" fill="#009D10"/>
<rect width="9.67665" height="23.2668" rx="4.83833" transform="matrix(1.00239 0 0 -1.00239 8.87712 132)" fill="#0DBBFC"/>
<rect width="9.67665" height="13.4841" rx="4.83833" transform="matrix(1.00239 0 0 -1.00239 28.2766 122.194)" fill="#0DBBFC"/>
<rect x="47.6762" y="46.1313" width="9.69978" height="62.5464" rx="4.83833" fill="#0DBBFC"/>
<rect x="67.0759" y="65.4782" width="9.69978" height="43.1994" rx="4.83833" fill="#0DBBFC"/>
<rect x="86.4755" y="25.4592" width="9.69979" height="83.2184" rx="4.83833" fill="#95ABBC"/>
<rect x="105.875" y="49.8416" width="9.69977" height="58.836" rx="4.83832" fill="#0DBBFC"/>
<rect x="125.275" y="38.4455" width="9.69976" height="70.2321" rx="4.83832" fill="#0DBBFC"/>
<rect x="144.674" y="76.6094" width="9.69979" height="32.0683" rx="4.83833" fill="#0DBBFC"/>
</svg>
