<svg width="262" height="166" viewBox="0 0 262 166" fill="none" xmlns="http://www.w3.org/2000/svg">
<g filter="url(#filter0_b_64_1015)">
<rect width="262" height="165.361" rx="14.1323" fill="white" fill-opacity="0.2"/>
<rect x="226.035" y="67.8782" width="8.00125" height="72.0112" rx="4" transform="rotate(90 226.035 67.8782)" fill="#95ABBC"/>
<rect x="222.034" y="90.014" width="8.00125" height="68.0106" rx="4" transform="rotate(90 222.034 90.014)" fill="#95ABBC"/>
<rect x="230.036" y="112.15" width="8.00125" height="76.0118" rx="4" transform="rotate(90 230.036 112.15)" fill="#95ABBC"/>
<g clip-path="url(#clip0_64_1015)">
<path d="M114.664 93.6442C114.664 115.699 96.8286 133.552 74.8592 133.552C52.8898 133.552 35.0547 115.699 35.0547 93.6442C35.0547 71.5894 52.8898 53.736 74.8592 53.736C96.8286 53.736 114.664 71.5894 114.664 93.6442Z" stroke="#0A2640" stroke-width="13.3928"/>
<mask id="mask0_64_1015" style="mask-type:alpha" maskUnits="userSpaceOnUse" x="0" y="30" width="74" height="121">
<path d="M73.3758 89.3465L55.2368 30.1804L0.32488 99.9237L29.5123 150.826L73.3758 89.3465Z" fill="#C4C4C4"/>
</mask>
<g mask="url(#mask0_64_1015)">
<path d="M114.665 93.6436C114.665 115.698 96.8295 133.552 74.8601 133.552C52.8908 133.552 35.0556 115.698 35.0556 93.6436C35.0556 71.5888 52.8908 53.7353 74.8601 53.7353C96.8295 53.7353 114.665 71.5888 114.665 93.6436Z" stroke="#0DBBFC" stroke-width="13.3928"/>
</g>
<mask id="mask1_64_1015" style="mask-type:alpha" maskUnits="userSpaceOnUse" x="49" y="25" width="91" height="85">
<path d="M79.5154 94.5314L139.521 109.225L107.811 26.2524L49.2389 25.2987L79.5154 94.5314Z" fill="#C4C4C4"/>
</mask>
<g mask="url(#mask1_64_1015)">
<path d="M54.4566 127.89C35.5615 116.602 29.3603 92.112 40.6084 73.1879C51.8564 54.2638 76.2928 48.0748 95.1879 59.3619C114.083 70.6489 120.284 95.1394 109.036 114.063C97.7882 132.988 73.3518 139.177 54.4566 127.89Z" stroke="#69E6A6" stroke-width="13.3928"/>
</g>
</g>
</g>
<ellipse cx="20.9048" cy="17.3377" rx="4.80074" ry="5.00078" fill="#FC5B00"/>
<ellipse cx="40.1079" cy="17.3377" rx="4.80074" ry="5.00078" fill="#ECAA00"/>
<ellipse cx="59.3107" cy="17.3377" rx="4.80074" ry="5.00078" fill="#009D10"/>
<defs>
<filter id="filter0_b_64_1015" x="-133.148" y="-133.148" width="528.295" height="431.656" filterUnits="userSpaceOnUse" color-interpolation-filters="sRGB">
<feFlood flood-opacity="0" result="BackgroundImageFix"/>
<feGaussianBlur in="BackgroundImageFix" stdDeviation="66.5635"/>
<feComposite in2="SourceAlpha" operator="in" result="effect1_backgroundBlur_64_1015"/>
<feBlend mode="normal" in="SourceGraphic" in2="effect1_backgroundBlur_64_1015" result="shape"/>
</filter>
<clipPath id="clip0_64_1015">
<rect width="93.0378" height="93.0378" fill="white" transform="translate(28.269 47.115)"/>
</clipPath>
</defs>
</svg>
