<svg width="33" height="34" viewBox="0 0 33 34" fill="none" xmlns="http://www.w3.org/2000/svg">
<path d="M9.07354 2.46043C9.03614 2.38827 9.01333 2.30946 9.0064 2.22848C8.99947 2.14751 9.00856 2.06596 9.03316 1.98851C9.05776 1.91105 9.09737 1.83919 9.14975 1.77705C9.20212 1.71491 9.26622 1.66369 9.3384 1.62633C11.553 0.500177 14.013 -0.0571378 16.4967 0.00462805C18.9804 0.0663939 21.4097 0.745298 23.5655 1.98014C23.6362 2.0208 23.6982 2.07506 23.7478 2.1398C23.7975 2.20453 23.8338 2.27845 23.8547 2.3573C23.8757 2.43614 23.8808 2.51835 23.8698 2.59918C23.8588 2.68001 23.8319 2.75785 23.7906 2.82823L16.6685 15.0513C16.6142 15.1449 16.5361 15.2226 16.4423 15.2765C16.3484 15.3304 16.2421 15.3587 16.1338 15.3585H16.1181C16.0072 15.3556 15.8992 15.323 15.8052 15.2642C15.7111 15.2054 15.6346 15.1225 15.5834 15.0241L9.07354 2.46043ZM15.7518 18.6184V18.6171L9.24164 6.05351C9.16604 5.90806 9.03595 5.79842 8.8798 5.74855C8.72364 5.69867 8.55409 5.71259 8.40816 5.78729C6.67314 6.67692 5.13089 7.90044 3.86993 9.38763C2.60897 10.8748 1.65412 12.5964 1.0602 14.4536C0.466276 16.3107 0.244966 18.2669 0.408972 20.2098C0.572978 22.1527 1.11907 24.0441 2.01591 25.7754C2.91274 27.5067 4.14267 29.0438 5.63508 30.2986C7.1275 31.5534 8.85303 32.5011 10.7126 33.0873C12.5722 33.6735 14.5293 33.8866 16.4715 33.7146C18.4137 33.5425 20.3028 32.9885 22.0304 32.0845C22.1755 32.0085 22.2846 31.8782 22.334 31.7221C22.3835 31.5659 22.3691 31.3965 22.2941 31.2509L15.7518 18.6184ZM23.3829 30.4936L23.4325 30.5927C23.5073 30.7388 23.6362 30.85 23.7917 30.9024C23.8555 30.9236 23.9229 30.932 23.9899 30.9272C24.088 30.9245 24.1846 30.9035 24.2749 30.8653C24.5004 30.7535 24.7196 30.6294 24.9315 30.4936C25.5615 30.1281 26.1621 29.7139 26.7277 29.2548H22.7387L23.3829 30.4936ZM22.0946 28.016H28.0781C28.4628 27.6294 28.8188 27.2154 29.1434 26.7771H21.4504L22.0946 28.016ZM20.8186 25.5383H30.023C30.2768 25.1406 30.5044 24.7268 30.7044 24.2995H20.1744L20.8186 25.5383ZM19.5302 23.0607H31.2494C31.4138 22.6563 31.5545 22.2426 31.6706 21.8219H18.886L19.5302 23.0607ZM18.2418 20.583H31.9803C32.0547 20.1742 32.1166 19.7654 32.1538 19.3442H17.61L18.2418 20.583ZM24.8819 4.92432C24.8124 4.88108 24.7344 4.85319 24.6532 4.84251C24.572 4.83183 24.4895 4.8386 24.4111 4.86238C24.3309 4.88071 24.2553 4.91549 24.1892 4.96454C24.1231 5.01359 24.0679 5.07582 24.0271 5.14731L23.6926 5.71717H26.0836C25.6975 5.43159 25.2963 5.16692 24.8819 4.92432ZM27.5825 6.95599H22.9741L22.2556 8.19481H28.7594C28.3929 7.75814 27.9999 7.34441 27.5825 6.95599ZM29.6885 9.43363H21.5247L20.8062 10.6725H30.4442C30.2207 10.2429 29.9682 9.82897 29.6885 9.43363ZM31.0388 11.9113H20.0877L19.3691 13.1501H31.522C31.3847 12.7283 31.2234 12.3147 31.0388 11.9113ZM31.8689 14.3889H18.6382L17.9197 15.6277H32.0918C32.0427 15.2107 31.9682 14.797 31.8689 14.3889ZM32.2157 16.8666H17.2012L16.9039 17.3745C16.8502 17.4639 16.8208 17.5659 16.8186 17.6702C16.8165 17.7745 16.8416 17.8775 16.8915 17.9691L16.9658 18.1054H32.2405C32.2529 17.9815 32.2529 17.8452 32.2529 17.7214C32.2529 17.4364 32.2405 17.1515 32.2157 16.8666Z" fill="white"/>
<path d="M8.78892 5.17496C8.56184 4.74467 8.02739 4.57785 7.61049 4.82867C4.31014 6.81432 1.84438 9.95071 0.700806 13.6501C-0.529743 17.6308 -0.128558 21.9373 1.81611 25.6222C3.76077 29.3072 7.08961 32.0686 11.0703 33.2992C14.7697 34.4428 18.7504 34.1771 22.2522 32.5731C22.6945 32.3704 22.8584 31.8351 22.6313 31.4048L15.7101 18.2899L8.78892 5.17496Z" fill="white"/>
</svg>
