<svg width="262" height="166" viewBox="0 0 262 166" fill="none" xmlns="http://www.w3.org/2000/svg">
<g filter="url(#filter0_b_604_1560)">
<rect width="262" height="165.361" rx="14.1323" fill="#0A2640" fill-opacity="0.8"/>
<rect x="226.035" y="67.8782" width="8.00125" height="72.0111" rx="4" transform="rotate(90 226.035 67.8782)" fill="#95ABBC"/>
<rect x="222.034" y="90.0139" width="8.00125" height="68.0105" rx="4" transform="rotate(90 222.034 90.0139)" fill="#95ABBC"/>
<rect x="230.036" y="112.15" width="8.00125" height="76.0118" rx="4" transform="rotate(90 230.036 112.15)" fill="#95ABBC"/>
<g clip-path="url(#clip0_604_1560)">
<path d="M114.664 93.6441C114.664 115.699 96.8285 133.552 74.8591 133.552C52.8898 133.552 35.0546 115.699 35.0546 93.6441C35.0546 71.5894 52.8898 53.7359 74.8591 53.7359C96.8285 53.7359 114.664 71.5894 114.664 93.6441Z" stroke="#0A2640" stroke-width="13.3928"/>
<mask id="mask0_604_1560" style="mask-type:alpha" maskUnits="userSpaceOnUse" x="0" y="30" width="74" height="121">
<path d="M73.3759 89.3465L55.2369 30.1804L0.325001 99.9236L29.5124 150.826L73.3759 89.3465Z" fill="#C4C4C4"/>
</mask>
<g mask="url(#mask0_604_1560)">
<path d="M114.665 93.6435C114.665 115.698 96.8295 133.552 74.8601 133.552C52.8907 133.552 35.0556 115.698 35.0556 93.6435C35.0556 71.5888 52.8907 53.7353 74.8601 53.7353C96.8295 53.7353 114.665 71.5888 114.665 93.6435Z" stroke="#0DBBFC" stroke-width="13.3928"/>
</g>
<mask id="mask1_604_1560" style="mask-type:alpha" maskUnits="userSpaceOnUse" x="49" y="25" width="91" height="85">
<path d="M79.5153 94.5313L139.521 109.224L107.811 26.2524L49.2388 25.2987L79.5153 94.5313Z" fill="#C4C4C4"/>
</mask>
<g mask="url(#mask1_604_1560)">
<path d="M54.4566 127.889C35.5614 116.602 29.3602 92.1119 40.6083 73.1879C51.8563 54.2638 76.2927 48.0748 95.1878 59.3618C114.083 70.6489 120.284 95.1394 109.036 114.063C97.7881 132.987 73.3517 139.177 54.4566 127.889Z" stroke="#69E6A6" stroke-width="13.3928"/>
</g>
</g>
</g>
<ellipse cx="31.0156" cy="17.3377" rx="4.99273" ry="5.00077" fill="#FC5B00"/>
<ellipse cx="50.9864" cy="17.3377" rx="4.99273" ry="5.00077" fill="#ECAA00"/>
<ellipse cx="70.9573" cy="17.3377" rx="4.99273" ry="5.00077" fill="#009D10"/>
<defs>
<filter id="filter0_b_604_1560" x="-144.022" y="-144.022" width="550.045" height="453.405" filterUnits="userSpaceOnUse" color-interpolation-filters="sRGB">
<feFlood flood-opacity="0" result="BackgroundImageFix"/>
<feGaussianBlur in="BackgroundImageFix" stdDeviation="72"/>
<feComposite in2="SourceAlpha" operator="in" result="effect1_backgroundBlur_604_1560"/>
<feBlend mode="normal" in="SourceGraphic" in2="effect1_backgroundBlur_604_1560" result="shape"/>
</filter>
<clipPath id="clip0_604_1560">
<rect width="93.0378" height="93.0378" fill="white" transform="translate(28.269 47.115)"/>
</clipPath>
</defs>
</svg>
