<svg width="33" height="34" viewBox="0 0 33 34" fill="none" xmlns="http://www.w3.org/2000/svg">
<path d="M9.07355 2.46043C9.03615 2.38828 9.01334 2.30946 9.00641 2.22849C8.99948 2.14751 9.00857 2.06597 9.03317 1.98851C9.05777 1.91105 9.09738 1.8392 9.14976 1.77705C9.20213 1.71491 9.26624 1.66369 9.33841 1.62633C11.553 0.500177 14.013 -0.0571378 16.4967 0.00462806C18.9804 0.0663939 21.4097 0.745299 23.5656 1.98014C23.6363 2.0208 23.6982 2.07507 23.7479 2.1398C23.7975 2.20453 23.8338 2.27845 23.8548 2.3573C23.8757 2.43614 23.8808 2.51835 23.8698 2.59918C23.8588 2.68001 23.8319 2.75786 23.7906 2.82824L16.6685 15.0513C16.6142 15.1449 16.5362 15.2226 16.4423 15.2765C16.3485 15.3304 16.2421 15.3587 16.1338 15.3586H16.1181C16.0073 15.3556 15.8992 15.323 15.8052 15.2642C15.7112 15.2054 15.6346 15.1225 15.5834 15.0241L9.07355 2.46043ZM15.7518 18.6184V18.6172L9.24166 6.05351C9.16605 5.90806 9.03596 5.79843 8.87981 5.74855C8.72365 5.69867 8.5541 5.7126 8.40818 5.78729C6.67315 6.67693 5.1309 7.90045 3.86994 9.38764C2.60897 10.8748 1.65413 12.5964 1.0602 14.4536C0.466281 16.3107 0.244971 18.2669 0.408977 20.2098C0.572983 22.1527 1.11908 24.0441 2.01591 25.7754C2.91275 27.5067 4.14267 29.0439 5.63509 30.2986C7.12751 31.5534 8.85304 32.5011 10.7126 33.0873C12.5723 33.6735 14.5293 33.8867 16.4715 33.7146C18.4137 33.5425 20.3028 32.9886 22.0304 32.0845C22.1755 32.0085 22.2847 31.8783 22.3341 31.7221C22.3835 31.5659 22.3691 31.3966 22.2941 31.2509L15.7518 18.6184ZM23.3829 30.4936L23.4325 30.5927C23.5073 30.7389 23.6362 30.85 23.7918 30.9025C23.8556 30.9236 23.9229 30.932 23.99 30.9272C24.088 30.9245 24.1846 30.9035 24.2749 30.8653C24.5004 30.7535 24.7196 30.6295 24.9315 30.4936C25.5616 30.1281 26.1622 29.7139 26.7278 29.2548H22.7388L23.3829 30.4936ZM22.0946 28.016H28.0781C28.4628 27.6294 28.8189 27.2154 29.1435 26.7772H21.4504L22.0946 28.016ZM20.8186 25.5383H30.023C30.2768 25.1406 30.5044 24.7268 30.7044 24.2995H20.1744L20.8186 25.5383ZM19.5302 23.0607H31.2495C31.4139 22.6563 31.5545 22.2427 31.6707 21.8219H18.886L19.5302 23.0607ZM18.2418 20.5831H31.9804C32.0547 20.1742 32.1167 19.7654 32.1538 19.3442H17.61L18.2418 20.5831ZM24.8819 4.92433C24.8124 4.88109 24.7344 4.8532 24.6532 4.84251C24.5721 4.83183 24.4895 4.83861 24.4112 4.86238C24.3309 4.88071 24.2554 4.9155 24.1893 4.96454C24.1231 5.01359 24.0679 5.07583 24.0271 5.14731L23.6927 5.71717H26.0836C25.6975 5.43159 25.2964 5.16693 24.8819 4.92433ZM27.5826 6.956H22.9741L22.2556 8.19482H28.7594C28.3929 7.75814 27.9999 7.34442 27.5826 6.956ZM29.6886 9.43364H21.5247L20.8062 10.6725H30.4442C30.2207 10.2429 29.9682 9.82898 29.6886 9.43364ZM31.0389 11.9113H20.0877L19.3692 13.1501H31.522C31.3847 12.7283 31.2234 12.3147 31.0389 11.9113ZM31.8689 14.3889H18.6383L17.9197 15.6278H32.0919C32.0427 15.2107 31.9682 14.797 31.8689 14.3889ZM32.2158 16.8666H17.2012L16.9039 17.3745C16.8502 17.464 16.8208 17.5659 16.8187 17.6702C16.8165 17.7745 16.8416 17.8775 16.8915 17.9691L16.9658 18.1054H32.2405C32.2529 17.9815 32.2529 17.8453 32.2529 17.7214C32.2529 17.4364 32.2405 17.1515 32.2158 16.8666Z" fill="#0A2640"/>
<path d="M8.78902 5.17493C8.56194 4.74464 8.02748 4.57782 7.61059 4.82864C4.31023 6.81429 1.84447 9.95068 0.700894 13.6501C-0.529657 17.6308 -0.128471 21.9373 1.81619 25.6222C3.76086 29.3071 7.08971 32.0686 11.0704 33.2992C14.7698 34.4428 18.7505 34.1771 22.2523 32.5731C22.6946 32.3704 22.8585 31.8351 22.6314 31.4048L15.7102 18.2899L8.78902 5.17493Z" fill="#0A2640"/>
</svg>
