<svg width="174" height="174" viewBox="0 0 174 174" fill="none" xmlns="http://www.w3.org/2000/svg">
<g clip-path="url(#clip0_0_4)">
<path d="M161.552 87.0048C161.552 128.245 128.202 161.63 87.121 161.63C46.0401 161.63 12.6898 128.245 12.6898 87.0048C12.6898 45.7642 46.0401 12.3797 87.121 12.3797C128.202 12.3797 161.552 45.7642 161.552 87.0048Z" stroke="#0A2640" stroke-width="24.971"/>
<mask id="mask0_0_4" style="mask-type:alpha" maskUnits="userSpaceOnUse" x="-53" y="-32" width="138" height="226">
<path d="M84.346 78.9695L50.4274 -31.6661L-52.2533 98.748L2.32476 193.932L84.346 78.9695Z" fill="#C4C4C4"/>
</mask>
<g mask="url(#mask0_0_4)">
<path d="M161.552 87.0045C161.552 128.245 128.202 161.63 87.1213 161.63C46.0404 161.63 12.6901 128.245 12.6901 87.0045C12.6901 45.7639 46.0404 12.3794 87.1213 12.3794C128.202 12.3794 161.552 45.7639 161.552 87.0045Z" stroke="#0DBBFC" stroke-width="24.971"/>
</g>
<mask id="mask1_0_4" style="mask-type:alpha" maskUnits="userSpaceOnUse" x="39" y="-41" width="170" height="158">
<path d="M95.8274 88.6642L208.034 116.139L148.738 -39.0119L39.2128 -40.7952L95.8274 88.6642Z" fill="#C4C4C4"/>
</mask>
<g mask="url(#mask1_0_4)">
<path d="M48.9687 151.042C13.6363 129.936 2.04061 84.1409 23.0735 48.7544C44.1065 13.3679 89.8005 1.79497 125.133 22.9008C160.465 44.0067 172.061 89.8019 151.028 125.188C129.995 160.575 84.301 172.148 48.9687 151.042Z" stroke="#69E6A6" stroke-width="24.971"/>
</g>
</g>
<defs>
<clipPath id="clip0_0_4">
<rect width="173.469" height="173.469" fill="white" transform="scale(1.00306)"/>
</clipPath>
</defs>
</svg>
